<?xml version="1.0" encoding="UTF-8" standalone="no"?>
<!DOCTYPE svg PUBLIC "-//W3C//DTD SVG 1.1//EN" "http://www.w3.org/Graphics/SVG/1.1/DTD/svg11.dtd">
<svg width="100%" height="100%" viewBox="0 0 716 140" version="1.1" xmlns="http://www.w3.org/2000/svg" xmlns:xlink="http://www.w3.org/1999/xlink" xml:space="preserve" xmlns:serif="http://www.serif.com/" style="fill-rule:evenodd;clip-rule:evenodd;stroke-linejoin:round;stroke-miterlimit:2;">
    <g transform="matrix(1,0,0,1,-101.174,-17.8925)">
        <g transform="matrix(0.613552,0,0,0.613552,-10.6711,-80.1304)">
            <g transform="matrix(207.164,0,0,207.164,140.312,332.736)">
                <path d="M0.714,-0.835C0.746,-0.835 0.777,-0.83 0.808,-0.821C0.838,-0.811 0.866,-0.797 0.892,-0.78C0.919,-0.763 0.942,-0.742 0.962,-0.718C0.983,-0.693 1,-0.667 1.012,-0.637C1.02,-0.637 1.027,-0.636 1.032,-0.635C1.037,-0.634 1.042,-0.632 1.046,-0.629C1.051,-0.626 1.055,-0.623 1.059,-0.619C1.063,-0.615 1.068,-0.611 1.073,-0.605C1.092,-0.587 1.109,-0.571 1.122,-0.56C1.135,-0.548 1.145,-0.538 1.153,-0.529C1.161,-0.52 1.167,-0.512 1.171,-0.505C1.174,-0.497 1.177,-0.488 1.178,-0.477C1.18,-0.467 1.181,-0.454 1.18,-0.438C1.18,-0.422 1.18,-0.402 1.18,-0.377C1.18,-0.371 1.179,-0.366 1.176,-0.361C1.174,-0.356 1.169,-0.354 1.162,-0.354C1.155,-0.354 1.15,-0.356 1.148,-0.361C1.146,-0.366 1.145,-0.372 1.145,-0.377C1.145,-0.378 1.144,-0.379 1.144,-0.381C1.144,-0.383 1.144,-0.384 1.143,-0.384C1.142,-0.384 1.141,-0.383 1.141,-0.381L1.141,-0.377C1.141,-0.372 1.14,-0.367 1.138,-0.362C1.137,-0.357 1.132,-0.354 1.125,-0.354C1.119,-0.354 1.115,-0.355 1.113,-0.357C1.111,-0.359 1.109,-0.361 1.108,-0.365C1.108,-0.368 1.107,-0.371 1.107,-0.375C1.107,-0.378 1.106,-0.381 1.105,-0.384C1.104,-0.384 1.103,-0.382 1.103,-0.379C1.103,-0.376 1.103,-0.373 1.102,-0.369C1.101,-0.366 1.1,-0.362 1.098,-0.359C1.095,-0.356 1.092,-0.355 1.086,-0.355C1.08,-0.355 1.075,-0.357 1.073,-0.362C1.07,-0.366 1.068,-0.371 1.068,-0.377L1.068,-0.442C1.068,-0.451 1.065,-0.457 1.059,-0.459C1.052,-0.462 1.045,-0.464 1.038,-0.464L1.038,-0.194C1.038,-0.179 1.037,-0.164 1.034,-0.15C1.032,-0.135 1.029,-0.12 1.025,-0.105L1.123,-0.105C1.131,-0.105 1.138,-0.104 1.144,-0.101C1.151,-0.098 1.157,-0.094 1.162,-0.089C1.167,-0.084 1.17,-0.079 1.173,-0.072C1.176,-0.065 1.178,-0.058 1.178,-0.051L1.178,0.053C1.178,0.058 1.176,0.062 1.172,0.064C1.169,0.066 1.165,0.067 1.16,0.067C1.154,0.067 1.149,0.065 1.148,0.06C1.146,0.056 1.145,0.05 1.144,0.045L1.144,0.041C1.144,0.038 1.143,0.037 1.142,0.037C1.141,0.037 1.14,0.038 1.14,0.041L1.139,0.053C1.139,0.055 1.138,0.058 1.137,0.06C1.136,0.062 1.135,0.064 1.133,0.065C1.131,0.067 1.128,0.067 1.125,0.067C1.118,0.067 1.113,0.065 1.111,0.06C1.109,0.056 1.108,0.05 1.108,0.044L1.108,0.04C1.108,0.038 1.107,0.037 1.106,0.037C1.105,0.037 1.104,0.038 1.104,0.04L1.104,0.044C1.104,0.05 1.103,0.056 1.101,0.06C1.1,0.065 1.095,0.067 1.088,0.067C1.083,0.067 1.08,0.066 1.077,0.064C1.074,0.061 1.072,0.058 1.072,0.053L1.072,0.006C1.072,0.004 1.071,0.002 1.07,-0C1.068,-0.002 1.066,-0.002 1.063,-0.002L0.977,-0.002C0.961,0.02 0.943,0.04 0.923,0.057C0.903,0.075 0.881,0.09 0.857,0.102C0.834,0.114 0.809,0.123 0.783,0.13C0.757,0.136 0.73,0.139 0.703,0.139L0.482,0.139C0.473,0.139 0.464,0.138 0.455,0.136C0.446,0.134 0.437,0.131 0.429,0.126C0.421,0.122 0.415,0.116 0.41,0.109C0.405,0.101 0.403,0.092 0.403,0.082C0.403,0.073 0.405,0.065 0.41,0.058C0.415,0.05 0.421,0.043 0.428,0.037C0.435,0.03 0.444,0.024 0.453,0.019C0.463,0.013 0.472,0.008 0.481,0.003C0.491,-0.002 0.5,-0.006 0.509,-0.01C0.518,-0.014 0.525,-0.018 0.531,-0.022C0.532,-0.023 0.533,-0.023 0.534,-0.024C0.534,-0.025 0.535,-0.026 0.535,-0.028C0.535,-0.034 0.536,-0.04 0.539,-0.045C0.542,-0.051 0.545,-0.055 0.55,-0.06C0.555,-0.064 0.56,-0.067 0.566,-0.07C0.571,-0.072 0.577,-0.073 0.583,-0.073C0.587,-0.073 0.591,-0.073 0.595,-0.072C0.6,-0.071 0.603,-0.07 0.606,-0.069C0.609,-0.068 0.612,-0.067 0.614,-0.066C0.616,-0.065 0.618,-0.065 0.618,-0.065C0.619,-0.065 0.619,-0.065 0.62,-0.065C0.62,-0.065 0.62,-0.065 0.621,-0.065L0.631,-0.071C0.644,-0.078 0.655,-0.085 0.663,-0.091C0.67,-0.097 0.676,-0.104 0.68,-0.112C0.684,-0.119 0.687,-0.128 0.688,-0.138C0.689,-0.148 0.689,-0.161 0.689,-0.176L0.625,-0.176C0.621,-0.176 0.618,-0.174 0.617,-0.171C0.616,-0.167 0.615,-0.163 0.615,-0.158C0.615,-0.153 0.616,-0.147 0.616,-0.141C0.617,-0.134 0.617,-0.129 0.616,-0.124C0.616,-0.118 0.615,-0.114 0.612,-0.111C0.61,-0.107 0.606,-0.105 0.601,-0.105C0.594,-0.105 0.589,-0.108 0.588,-0.113C0.586,-0.118 0.585,-0.123 0.584,-0.128C0.584,-0.129 0.584,-0.131 0.584,-0.133C0.584,-0.136 0.583,-0.137 0.581,-0.137C0.58,-0.137 0.579,-0.136 0.579,-0.133L0.577,-0.12C0.577,-0.118 0.577,-0.115 0.576,-0.113C0.575,-0.111 0.573,-0.109 0.571,-0.107C0.569,-0.106 0.567,-0.105 0.563,-0.105C0.557,-0.105 0.552,-0.108 0.551,-0.113C0.55,-0.117 0.549,-0.122 0.549,-0.128C0.549,-0.129 0.549,-0.13 0.549,-0.133C0.548,-0.136 0.548,-0.137 0.546,-0.137C0.544,-0.137 0.543,-0.136 0.543,-0.133C0.543,-0.13 0.542,-0.128 0.542,-0.127C0.542,-0.123 0.541,-0.118 0.539,-0.113C0.537,-0.108 0.533,-0.105 0.526,-0.105C0.521,-0.105 0.517,-0.108 0.514,-0.112C0.512,-0.116 0.511,-0.12 0.511,-0.125L0.511,-0.223C0.511,-0.23 0.513,-0.238 0.516,-0.245C0.52,-0.251 0.524,-0.257 0.53,-0.262C0.536,-0.267 0.542,-0.272 0.549,-0.275C0.556,-0.278 0.564,-0.279 0.571,-0.279L0.69,-0.279L0.691,-0.463C0.684,-0.463 0.678,-0.462 0.674,-0.46C0.669,-0.459 0.666,-0.456 0.664,-0.453C0.662,-0.45 0.66,-0.446 0.66,-0.441C0.659,-0.437 0.659,-0.431 0.659,-0.424L0.659,-0.373C0.659,-0.361 0.653,-0.355 0.642,-0.355C0.635,-0.355 0.631,-0.357 0.629,-0.362C0.627,-0.367 0.626,-0.372 0.625,-0.377C0.625,-0.378 0.625,-0.379 0.625,-0.381C0.625,-0.384 0.624,-0.385 0.623,-0.385C0.622,-0.385 0.621,-0.384 0.621,-0.382L0.621,-0.377C0.621,-0.372 0.62,-0.366 0.618,-0.362C0.616,-0.357 0.611,-0.355 0.604,-0.355C0.597,-0.355 0.592,-0.357 0.59,-0.362C0.588,-0.366 0.587,-0.372 0.587,-0.377C0.587,-0.378 0.587,-0.379 0.587,-0.382C0.587,-0.384 0.586,-0.385 0.585,-0.385C0.584,-0.385 0.583,-0.384 0.583,-0.381L0.582,-0.369C0.582,-0.366 0.581,-0.364 0.58,-0.362C0.579,-0.36 0.577,-0.358 0.575,-0.357C0.573,-0.356 0.57,-0.355 0.566,-0.355C0.56,-0.355 0.556,-0.357 0.553,-0.36C0.551,-0.363 0.549,-0.368 0.549,-0.373L0.549,-0.481C0.549,-0.487 0.551,-0.493 0.553,-0.498C0.556,-0.504 0.559,-0.509 0.563,-0.515C0.566,-0.52 0.571,-0.525 0.575,-0.53C0.579,-0.534 0.583,-0.538 0.587,-0.542C0.605,-0.559 0.622,-0.575 0.639,-0.591C0.656,-0.607 0.673,-0.624 0.69,-0.64C0.684,-0.656 0.672,-0.664 0.653,-0.664C0.646,-0.664 0.638,-0.663 0.631,-0.661C0.623,-0.659 0.616,-0.656 0.609,-0.653C0.602,-0.649 0.595,-0.645 0.589,-0.641C0.582,-0.637 0.576,-0.633 0.57,-0.629C0.556,-0.62 0.542,-0.612 0.529,-0.604C0.515,-0.596 0.5,-0.59 0.484,-0.584C0.468,-0.579 0.451,-0.574 0.434,-0.571C0.416,-0.568 0.399,-0.566 0.381,-0.566C0.355,-0.566 0.329,-0.57 0.305,-0.578C0.281,-0.587 0.258,-0.598 0.236,-0.612C0.233,-0.614 0.23,-0.616 0.226,-0.619C0.223,-0.622 0.219,-0.625 0.216,-0.628C0.212,-0.631 0.209,-0.635 0.207,-0.638C0.204,-0.642 0.203,-0.645 0.203,-0.648C0.203,-0.65 0.203,-0.652 0.204,-0.653C0.207,-0.658 0.21,-0.661 0.214,-0.662C0.218,-0.663 0.222,-0.664 0.228,-0.664L0.28,-0.663C0.305,-0.663 0.327,-0.665 0.347,-0.67C0.367,-0.676 0.386,-0.683 0.404,-0.693C0.421,-0.702 0.438,-0.714 0.455,-0.727C0.472,-0.74 0.489,-0.755 0.507,-0.771C0.523,-0.785 0.538,-0.796 0.554,-0.804C0.571,-0.812 0.587,-0.819 0.604,-0.823C0.621,-0.828 0.639,-0.831 0.657,-0.833C0.676,-0.834 0.695,-0.835 0.714,-0.835Z" style="fill:rgb(0,210,106);fill-rule:nonzero;"/>
                <path d="M0.704,-0C0.699,-0 0.695,-0.002 0.692,-0.005C0.688,-0.009 0.687,-0.013 0.687,-0.018C0.687,-0.022 0.688,-0.027 0.692,-0.03C0.695,-0.033 0.699,-0.035 0.704,-0.035C0.709,-0.035 0.713,-0.033 0.717,-0.03C0.72,-0.027 0.722,-0.022 0.722,-0.018C0.722,-0.013 0.72,-0.009 0.717,-0.005C0.713,-0.002 0.709,-0 0.704,-0Z" style="fill:rgb(28,28,28);fill-rule:nonzero;"/>
                <path d="M0.845,-0.592C0.845,-0.596 0.847,-0.6 0.851,-0.604C0.854,-0.607 0.858,-0.609 0.863,-0.609C0.867,-0.609 0.871,-0.607 0.875,-0.604C0.878,-0.6 0.88,-0.596 0.88,-0.592L0.88,-0.555C0.88,-0.55 0.878,-0.546 0.875,-0.542C0.872,-0.539 0.868,-0.537 0.863,-0.537C0.858,-0.537 0.854,-0.539 0.851,-0.542C0.847,-0.546 0.845,-0.55 0.845,-0.554L0.845,-0.592ZM0.777,-0.592C0.777,-0.596 0.779,-0.6 0.782,-0.604C0.786,-0.607 0.79,-0.609 0.794,-0.609C0.799,-0.609 0.803,-0.607 0.807,-0.604C0.81,-0.6 0.812,-0.596 0.812,-0.592L0.812,-0.555C0.812,-0.55 0.81,-0.546 0.807,-0.542C0.803,-0.539 0.799,-0.537 0.794,-0.537C0.79,-0.537 0.786,-0.539 0.782,-0.542C0.779,-0.546 0.777,-0.55 0.777,-0.554L0.777,-0.592ZM0.794,-0.43C0.79,-0.43 0.786,-0.431 0.782,-0.435C0.779,-0.439 0.777,-0.443 0.777,-0.447L0.777,-0.484C0.777,-0.488 0.779,-0.492 0.782,-0.496C0.786,-0.499 0.79,-0.501 0.794,-0.501C0.799,-0.501 0.803,-0.499 0.807,-0.496C0.81,-0.493 0.812,-0.489 0.812,-0.484L0.812,-0.447C0.812,-0.442 0.81,-0.438 0.807,-0.435C0.803,-0.431 0.799,-0.43 0.794,-0.43ZM0.777,-0.376C0.777,-0.381 0.779,-0.385 0.782,-0.389C0.786,-0.392 0.79,-0.394 0.794,-0.394C0.799,-0.394 0.803,-0.392 0.807,-0.389C0.81,-0.385 0.812,-0.381 0.812,-0.376L0.812,-0.34C0.812,-0.335 0.81,-0.331 0.807,-0.328C0.803,-0.324 0.799,-0.323 0.794,-0.323C0.79,-0.323 0.786,-0.324 0.782,-0.328C0.779,-0.331 0.777,-0.335 0.777,-0.34L0.777,-0.376ZM0.777,-0.27C0.777,-0.274 0.779,-0.278 0.782,-0.281C0.786,-0.285 0.79,-0.287 0.794,-0.287C0.799,-0.287 0.803,-0.285 0.807,-0.281C0.81,-0.278 0.812,-0.274 0.812,-0.27L0.812,-0.232C0.812,-0.228 0.81,-0.223 0.807,-0.22C0.803,-0.217 0.799,-0.215 0.794,-0.215C0.79,-0.215 0.786,-0.217 0.782,-0.22C0.779,-0.224 0.777,-0.228 0.777,-0.232L0.777,-0.27ZM0.863,-0.215C0.858,-0.215 0.854,-0.217 0.851,-0.22C0.847,-0.224 0.845,-0.228 0.845,-0.232L0.845,-0.27C0.845,-0.274 0.847,-0.278 0.851,-0.281C0.854,-0.285 0.858,-0.287 0.863,-0.287C0.867,-0.287 0.871,-0.285 0.875,-0.281C0.878,-0.278 0.88,-0.274 0.88,-0.27L0.88,-0.232C0.88,-0.228 0.878,-0.223 0.875,-0.22C0.872,-0.217 0.868,-0.215 0.863,-0.215ZM0.845,-0.376C0.845,-0.381 0.847,-0.385 0.85,-0.389C0.854,-0.392 0.858,-0.394 0.863,-0.394C0.867,-0.394 0.871,-0.392 0.875,-0.389C0.878,-0.385 0.88,-0.381 0.88,-0.376L0.88,-0.34C0.88,-0.335 0.878,-0.331 0.875,-0.328C0.872,-0.324 0.868,-0.323 0.863,-0.323C0.858,-0.323 0.854,-0.324 0.851,-0.328C0.847,-0.331 0.845,-0.335 0.845,-0.34L0.845,-0.376ZM0.863,-0.43C0.858,-0.43 0.854,-0.431 0.85,-0.435C0.847,-0.438 0.845,-0.442 0.845,-0.447L0.845,-0.484C0.845,-0.489 0.847,-0.493 0.85,-0.496C0.854,-0.499 0.858,-0.501 0.863,-0.501C0.867,-0.501 0.871,-0.499 0.875,-0.496C0.878,-0.492 0.88,-0.488 0.88,-0.484L0.88,-0.447C0.88,-0.442 0.878,-0.438 0.875,-0.435C0.872,-0.431 0.868,-0.43 0.863,-0.43ZM0.931,-0.215C0.926,-0.215 0.922,-0.217 0.919,-0.22C0.915,-0.224 0.914,-0.228 0.914,-0.232L0.914,-0.27C0.914,-0.274 0.915,-0.278 0.919,-0.281C0.922,-0.285 0.926,-0.287 0.931,-0.287C0.935,-0.287 0.939,-0.285 0.943,-0.281C0.946,-0.278 0.948,-0.274 0.948,-0.27L0.948,-0.232C0.948,-0.228 0.946,-0.224 0.943,-0.22C0.939,-0.217 0.935,-0.215 0.931,-0.215ZM0.914,-0.375C0.914,-0.38 0.915,-0.384 0.919,-0.387C0.922,-0.391 0.926,-0.393 0.931,-0.393C0.935,-0.393 0.939,-0.391 0.943,-0.387C0.946,-0.384 0.948,-0.38 0.948,-0.375L0.948,-0.338C0.948,-0.334 0.946,-0.33 0.943,-0.326C0.939,-0.323 0.935,-0.321 0.931,-0.321C0.926,-0.321 0.922,-0.323 0.919,-0.326C0.915,-0.33 0.914,-0.334 0.914,-0.338L0.914,-0.375ZM0.931,-0.43C0.926,-0.43 0.922,-0.431 0.918,-0.435C0.915,-0.438 0.914,-0.442 0.914,-0.447L0.914,-0.484C0.914,-0.489 0.915,-0.493 0.918,-0.496C0.922,-0.499 0.926,-0.501 0.931,-0.501C0.935,-0.501 0.939,-0.499 0.943,-0.496C0.946,-0.492 0.948,-0.488 0.948,-0.484L0.948,-0.447C0.948,-0.443 0.946,-0.439 0.943,-0.435C0.939,-0.431 0.935,-0.43 0.931,-0.43ZM0.914,-0.592C0.914,-0.596 0.915,-0.6 0.919,-0.604C0.922,-0.607 0.926,-0.609 0.931,-0.609C0.935,-0.609 0.939,-0.607 0.943,-0.604C0.946,-0.6 0.948,-0.596 0.948,-0.592L0.948,-0.555C0.948,-0.55 0.946,-0.546 0.943,-0.542C0.939,-0.539 0.935,-0.537 0.931,-0.537C0.926,-0.537 0.922,-0.539 0.919,-0.542C0.915,-0.546 0.914,-0.55 0.914,-0.554L0.914,-0.592Z" style="fill:rgb(252,213,63);fill-rule:nonzero;"/>
                <path d="M0.476,0.087C0.476,0.092 0.474,0.096 0.471,0.1C0.467,0.103 0.463,0.105 0.458,0.105C0.454,0.105 0.449,0.103 0.446,0.1C0.443,0.096 0.441,0.092 0.441,0.087C0.441,0.083 0.443,0.079 0.446,0.075C0.45,0.072 0.454,0.07 0.458,0.07C0.463,0.07 0.467,0.072 0.471,0.075C0.474,0.079 0.476,0.083 0.476,0.087ZM0.546,0.087C0.546,0.092 0.544,0.096 0.541,0.1C0.537,0.103 0.533,0.105 0.529,0.105C0.524,0.105 0.52,0.103 0.516,0.1C0.513,0.096 0.511,0.092 0.511,0.087C0.511,0.083 0.513,0.079 0.517,0.075C0.52,0.072 0.524,0.07 0.529,0.07C0.533,0.07 0.537,0.072 0.541,0.075C0.544,0.079 0.546,0.083 0.546,0.087Z" style="fill:rgb(0,132,99);fill-rule:nonzero;"/>
            </g>
            <g transform="matrix(207.164,0,0,207.164,424.757,332.736)">
                <path d="M0.31,0.007C0.261,0.007 0.218,-0.001 0.179,-0.018C0.14,-0.035 0.109,-0.059 0.086,-0.09C0.063,-0.121 0.052,-0.158 0.051,-0.201L0.201,-0.201C0.203,-0.172 0.213,-0.15 0.232,-0.133C0.25,-0.116 0.275,-0.108 0.307,-0.108C0.34,-0.108 0.365,-0.116 0.384,-0.132C0.403,-0.147 0.412,-0.168 0.412,-0.193C0.412,-0.214 0.406,-0.231 0.393,-0.244C0.38,-0.257 0.365,-0.268 0.345,-0.276C0.327,-0.283 0.3,-0.292 0.267,-0.301C0.222,-0.314 0.185,-0.328 0.157,-0.341C0.128,-0.354 0.104,-0.373 0.084,-0.4C0.063,-0.426 0.053,-0.461 0.053,-0.505C0.053,-0.546 0.063,-0.582 0.084,-0.613C0.105,-0.644 0.134,-0.667 0.171,-0.684C0.208,-0.7 0.251,-0.708 0.299,-0.708C0.371,-0.708 0.43,-0.691 0.474,-0.656C0.52,-0.621 0.544,-0.572 0.549,-0.509L0.395,-0.509C0.394,-0.533 0.384,-0.553 0.365,-0.569C0.345,-0.584 0.32,-0.592 0.289,-0.592C0.262,-0.592 0.24,-0.585 0.224,-0.571C0.207,-0.557 0.199,-0.537 0.199,-0.51C0.199,-0.491 0.205,-0.476 0.218,-0.464C0.23,-0.451 0.245,-0.441 0.264,-0.434C0.282,-0.426 0.308,-0.417 0.341,-0.407C0.386,-0.394 0.423,-0.38 0.452,-0.367C0.481,-0.354 0.505,-0.334 0.526,-0.307C0.547,-0.28 0.557,-0.245 0.557,-0.202C0.557,-0.165 0.547,-0.13 0.528,-0.098C0.509,-0.066 0.48,-0.041 0.443,-0.021C0.406,-0.003 0.361,0.007 0.31,0.007Z" style="fill-rule:nonzero;"/>
            </g>
            <g transform="matrix(207.164,0,0,207.164,550.92,332.736)">
                <path d="M0.837,-0.554L0.675,-0L0.524,-0L0.423,-0.387L0.322,-0L0.17,-0L0.007,-0.554L0.149,-0.554L0.247,-0.132L0.353,-0.554L0.501,-0.554L0.605,-0.133L0.703,-0.554L0.837,-0.554Z" style="fill-rule:nonzero;"/>
            </g>
            <g transform="matrix(207.164,0,0,207.164,725.766,332.736)">
                <path d="M0.033,-0.279C0.033,-0.335 0.044,-0.385 0.067,-0.428C0.089,-0.471 0.119,-0.505 0.158,-0.528C0.196,-0.551 0.239,-0.563 0.286,-0.563C0.327,-0.563 0.364,-0.555 0.395,-0.538C0.426,-0.521 0.45,-0.5 0.469,-0.475L0.469,-0.554L0.61,-0.554L0.61,-0L0.469,-0L0.469,-0.081C0.451,-0.055 0.426,-0.034 0.395,-0.017C0.363,0 0.326,0.009 0.285,0.009C0.238,0.009 0.196,-0.003 0.158,-0.027C0.119,-0.051 0.089,-0.085 0.067,-0.129C0.044,-0.172 0.033,-0.222 0.033,-0.279ZM0.469,-0.277C0.469,-0.311 0.462,-0.34 0.449,-0.365C0.436,-0.389 0.418,-0.407 0.395,-0.421C0.372,-0.434 0.348,-0.44 0.322,-0.44C0.296,-0.44 0.272,-0.434 0.25,-0.421C0.228,-0.408 0.21,-0.39 0.197,-0.366C0.183,-0.341 0.176,-0.312 0.176,-0.279C0.176,-0.246 0.183,-0.217 0.197,-0.192C0.21,-0.167 0.228,-0.147 0.251,-0.134C0.273,-0.121 0.297,-0.114 0.322,-0.114C0.348,-0.114 0.372,-0.121 0.395,-0.134C0.418,-0.147 0.436,-0.165 0.449,-0.19C0.462,-0.214 0.469,-0.243 0.469,-0.277Z" style="fill-rule:nonzero;"/>
            </g>
            <g transform="matrix(207.164,0,0,207.164,866.223,332.736)">
                <path d="M0.757,-0.562C0.825,-0.562 0.88,-0.541 0.922,-0.5C0.963,-0.458 0.984,-0.4 0.984,-0.325L0.984,-0L0.844,-0L0.844,-0.306C0.844,-0.349 0.833,-0.383 0.811,-0.406C0.789,-0.429 0.759,-0.44 0.721,-0.44C0.683,-0.44 0.653,-0.429 0.63,-0.406C0.608,-0.383 0.597,-0.349 0.597,-0.306L0.597,-0L0.457,-0L0.457,-0.306C0.457,-0.349 0.446,-0.383 0.424,-0.406C0.402,-0.429 0.372,-0.44 0.334,-0.44C0.295,-0.44 0.265,-0.429 0.243,-0.406C0.22,-0.383 0.209,-0.349 0.209,-0.306L0.209,-0L0.069,-0L0.069,-0.554L0.209,-0.554L0.209,-0.487C0.227,-0.51 0.25,-0.529 0.279,-0.542C0.307,-0.555 0.338,-0.562 0.372,-0.562C0.415,-0.562 0.454,-0.553 0.488,-0.535C0.522,-0.516 0.548,-0.49 0.567,-0.456C0.585,-0.488 0.611,-0.514 0.646,-0.533C0.68,-0.552 0.717,-0.562 0.757,-0.562Z" style="fill-rule:nonzero;"/>
            </g>
            <g transform="matrix(207.164,0,0,207.164,1083.33,332.736)">
                <path d="M0.209,-0.474C0.227,-0.499 0.252,-0.521 0.283,-0.538C0.315,-0.555 0.351,-0.563 0.392,-0.563C0.439,-0.563 0.482,-0.551 0.521,-0.528C0.559,-0.505 0.589,-0.471 0.612,-0.429C0.634,-0.386 0.645,-0.336 0.645,-0.279C0.645,-0.222 0.634,-0.172 0.612,-0.129C0.589,-0.085 0.559,-0.051 0.521,-0.027C0.482,-0.003 0.439,0.009 0.392,0.009C0.351,0.009 0.316,0.001 0.284,-0.016C0.254,-0.033 0.228,-0.054 0.209,-0.079L0.209,0.264L0.069,0.264L0.069,-0.554L0.209,-0.554L0.209,-0.474ZM0.502,-0.279C0.502,-0.312 0.495,-0.341 0.482,-0.366C0.468,-0.39 0.45,-0.408 0.428,-0.421C0.405,-0.434 0.381,-0.44 0.355,-0.44C0.33,-0.44 0.306,-0.434 0.283,-0.421C0.261,-0.407 0.243,-0.389 0.23,-0.364C0.216,-0.339 0.209,-0.31 0.209,-0.277C0.209,-0.244 0.216,-0.215 0.23,-0.19C0.243,-0.165 0.261,-0.147 0.283,-0.134C0.306,-0.121 0.33,-0.114 0.355,-0.114C0.381,-0.114 0.405,-0.121 0.428,-0.134C0.45,-0.147 0.468,-0.166 0.482,-0.191C0.495,-0.216 0.502,-0.245 0.502,-0.279Z" style="fill-rule:nonzero;"/>
            </g>
            <g transform="matrix(207.164,0,0,207.164,1223.79,332.736)">
                <path d="M0.599,-0.554L0.256,0.262L0.107,0.262L0.227,-0.014L0.005,-0.554L0.162,-0.554L0.305,-0.167L0.45,-0.554L0.599,-0.554Z" style="fill-rule:nonzero;"/>
            </g>
        </g>
    </g>
</svg>
