<?xml version="1.0" standalone="no"?>
<!DOCTYPE svg PUBLIC "-//W3C//DTD SVG 20010904//EN"
 "http://www.w3.org/TR/2001/REC-SVG-20010904/DTD/svg10.dtd">
<svg version="1.0" xmlns="http://www.w3.org/2000/svg"
 width="700.000000pt" height="700.000000pt" viewBox="0 0 700.000000 700.000000"
 preserveAspectRatio="xMidYMid meet">
<metadata>
Created by potrace 1.14, written by Peter Selinger 2001-2017
</metadata>
<g transform="translate(0.000000,700.000000) scale(0.100000,-0.100000)"
fill="#000000" stroke="none">
<path d="M3497 6514 c-1 -1 -49 -4 -106 -8 -90 -5 -155 -13 -263 -32 -173 -29
-378 -104 -521 -191 -86 -52 -132 -87 -287 -222 -160 -139 -308 -256 -405
-320 -38 -25 -72 -48 -75 -51 -9 -9 -81 -49 -174 -96 -84 -43 -256 -107 -321
-118 -16 -3 -57 -11 -90 -18 -38 -7 -173 -12 -370 -12 -338 -1 -358 -4 -389
-57 -15 -25 -16 -35 -6 -64 35 -106 338 -305 608 -399 97 -33 205 -60 302 -74
61 -9 321 -9 395 0 57 7 74 10 135 23 14 3 34 7 45 9 62 12 282 74 300 85 6 3
15 6 21 7 18 3 173 73 222 100 67 37 169 100 306 188 65 42 147 90 180 106
211 104 388 107 472 7 49 -58 50 -71 12 -109 -42 -39 -319 -303 -392 -371
-267 -252 -379 -378 -427 -482 -22 -49 -23 -55 -23 -432 0 -413 1 -421 54
-447 50 -25 121 -4 139 43 9 24 20 85 21 120 1 35 19 -8 23 -55 6 -67 21 -93
61 -109 76 -32 141 15 145 105 4 92 23 89 36 -6 3 -29 16 -62 29 -79 19 -24
30 -28 70 -28 95 2 103 25 104 298 2 225 4 251 22 296 14 34 73 66 133 73 l48
6 -5 -568 c-2 -312 -5 -569 -5 -572 -1 -3 -171 -6 -378 -5 -208 0 -398 -3
-423 -7 -71 -13 -148 -55 -206 -112 -63 -64 -91 -116 -101 -188 -6 -41 -9
-552 -4 -691 1 -41 51 -87 93 -87 18 1 42 8 53 18 22 18 45 75 45 110 0 11 5
33 10 48 16 40 29 18 34 -52 5 -91 30 -124 93 -124 54 1 77 35 88 125 11 100
28 96 40 -9 12 -97 72 -140 149 -105 41 19 48 55 48 233 0 90 4 169 9 177 6
11 53 14 228 15 l220 1 -4 -121 c-9 -277 -77 -378 -355 -528 -83 -45 -86 -46
-115 -31 -91 48 -231 52 -319 9 -90 -44 -158 -137 -170 -232 -3 -21 -13 -45
-23 -52 -10 -7 -90 -49 -177 -93 -87 -44 -184 -94 -215 -111 -31 -17 -74 -40
-96 -52 -96 -50 -210 -153 -260 -236 -48 -80 -60 -141 -43 -225 26 -132 132
-225 308 -272 59 -15 143 -17 860 -17 437 0 829 3 870 7 428 37 836 203 1155
470 89 75 245 235 314 324 l61 79 278 -1 c188 0 283 -4 296 -12 18 -10 20 -24
21 -185 1 -104 7 -182 13 -195 17 -31 67 -48 110 -37 46 11 69 51 74 123 4 64
22 70 26 9 5 -74 21 -109 58 -124 46 -19 69 -18 99 8 21 18 28 37 36 92 13 98
24 105 32 21 7 -67 21 -101 51 -120 42 -28 123 -7 147 37 17 31 16 706 -1 768
-18 67 -44 111 -91 159 -94 94 -125 100 -517 101 -179 0 -327 2 -329 4 -2 1 4
25 11 52 13 43 29 126 52 269 3 22 8 452 10 955 1 503 3 925 3 937 1 21 5 22
39 17 52 -8 102 -30 123 -56 11 -11 20 -21 21 -22 1 -1 4 -120 7 -266 7 -289
8 -297 66 -324 32 -15 71 -14 102 3 29 15 49 73 52 151 2 40 18 5 19 -43 4
-87 42 -127 120 -127 57 0 83 32 91 114 4 36 10 68 13 71 3 3 9 -20 13 -52 12
-101 40 -133 113 -133 47 0 86 32 100 81 5 19 8 176 7 349 -3 458 -16 501
-195 680 -211 209 -561 543 -607 578 -63 48 -140 78 -197 77 l-46 -2 -52 106
c-52 108 -133 237 -217 346 -46 61 -226 246 -291 300 -149 124 -312 226 -480
299 -47 21 -94 41 -105 46 -33 15 -206 68 -260 80 -182 41 -280 52 -478 54
-81 1 -149 1 -150 0z"/>
</g>
</svg>
